HIERARCHY
ROOT hip
{
  OFFSET 0 0 0
  CHANNELS 6 Xposition Yposition Zposition Zrotation Yrotation Xrotation
  JOINT abdomen
  {
    OFFSET 0 20.6881 -0.73152
    CHANNELS 3 Zrotation Xrotation Yrotation
    JOINT chest
    {
      OFFSET 0 11.7043 -0.48768
      CHANNELS 3 Zrotation Xrotation Yrotation
      JOINT neck
      {
        OFFSET 0 22.1894 -2.19456
        CHANNELS 3 Zrotation Xrotation Yrotation
        JOINT head
        {
          OFFSET -0.24384 7.07133 1.2192
          CHANNELS 3 Zrotation Xrotation Yrotation
          JOINT leftEye
          {
            OFFSET 4.14528 8.04674 8.04672
            CHANNELS 3 Zrotation Xrotation Yrotation
            End Site
            {
              OFFSET 1 0 0
            }
          }
          JOINT rightEye
          {
            OFFSET -3.6576 8.04674 8.04672
            CHANNELS 3 Zrotation Xrotation Yrotation
            End Site
            {
              OFFSET 1 0 0
            }
          }
        }
      }
      JOINT rCollar
      {
        OFFSET -2.68224 19.2634 -4.8768
        CHANNELS 3 Zrotation Xrotation Yrotation
        JOINT rShldr
        {
          OFFSET -8.77824 -1.95073 1.46304
          CHANNELS 3 Zrotation Xrotation Yrotation
          JOINT rForeArm
          {
            OFFSET -28.1742 -1.7115 0.48768
            CHANNELS 3 Zrotation Xrotation Yrotation
            JOINT rHand
            {
              OFFSET -22.5879 0.773209 7.07136
              CHANNELS 3 Zrotation Xrotation Yrotation
              JOINT rThumb1
              {
                OFFSET -1.2192 -0.487915 3.41376
                CHANNELS 3 Zrotation Xrotation Yrotation
                JOINT rThumb2
                {
                  OFFSET -3.37035 -0.52449 3.41376
                  CHANNELS 3 Zrotation Xrotation Yrotation
                  End Site
                  {
                    OFFSET -1.78271 -1.18214 1.43049
                  }
                }
              }
              JOINT rIndex1
              {
                OFFSET -7.75947 0.938293 5.60832
                CHANNELS 3 Zrotation Xrotation Yrotation
                JOINT rIndex2
                {
                  OFFSET -2.54057 -0.884171 1.56538
                  CHANNELS 3 Zrotation Xrotation Yrotation
                  End Site
                  {
                    OFFSET -1.62519 -0.234802 1.16502
                  }
                }
              }
              JOINT rMid1
              {
                OFFSET -8.24714 1.18213 3.41376
                CHANNELS 3 Zrotation Xrotation Yrotation
                JOINT rMid2
                {
                  OFFSET -3.10165 -0.590103 1.0647
                  CHANNELS 3 Zrotation Xrotation Yrotation
                  End Site
                  {
                    OFFSET -2.48547 -0.328903 0.83742
                  }
                }
              }
              JOINT rRing1
              {
                OFFSET -8.82822 0.546677 1.51678
                CHANNELS 3 Zrotation Xrotation Yrotation
                JOINT rRing2
                {
                  OFFSET -2.60934 -0.819778 -0.0198488
                  CHANNELS 3 Zrotation Xrotation Yrotation
                  End Site
                  {
                    OFFSET -2.33842 -0.294052 0.168128
                  }
                }
              }
              JOINT rPinky1
              {
                OFFSET -8.27202 -0.0477905 -0.4584
                CHANNELS 3 Zrotation Xrotation Yrotation
                JOINT rPinky2
                {
                  OFFSET -1.82734 -0.647385 -0.700984
                  CHANNELS 3 Zrotation Xrotation Yrotation
                  End Site
                  {
                    OFFSET -1.69225 -0.51767 -0.607171
                  }
                }
              }
            }
          }
        }
      }
      JOINT lCollar
      {
        OFFSET 2.68224 19.2634 -4.8768
        CHANNELS 3 Zrotation Xrotation Yrotation
        JOINT lShldr
        {
          OFFSET 8.77824 -1.95073 1.46304
          CHANNELS 3 Zrotation Xrotation Yrotation
          JOINT lForeArm
          {
            OFFSET 28.1742 -1.7115 0.48768
            CHANNELS 3 Zrotation Xrotation Yrotation
            JOINT lHand
            {
              OFFSET 22.5879 0.773209 7.07136
              CHANNELS 3 Zrotation Xrotation Yrotation
              JOINT lThumb1
              {
                OFFSET 1.2192 -0.487915 3.41376
                CHANNELS 3 Zrotation Xrotation Yrotation
                JOINT lThumb2
                {
                  OFFSET 3.37035 -0.52449 3.41376
                  CHANNELS 3 Zrotation Xrotation Yrotation
                  End Site
                  {
                    OFFSET 1.78271 -1.18214 1.43049
                  }
                }
              }
              JOINT lIndex1
              {
                OFFSET 7.75947 0.938293 5.60832
                CHANNELS 3 Zrotation Xrotation Yrotation
                JOINT lIndex2
                {
                  OFFSET 2.54057 -0.884171 1.56538
                  CHANNELS 3 Zrotation Xrotation Yrotation
                  End Site
                  {
                    OFFSET 1.62519 -0.234802 1.16502
                  }
                }
              }
              JOINT lMid1
              {
                OFFSET 8.24714 1.18213 3.41376
                CHANNELS 3 Zrotation Xrotation Yrotation
                JOINT lMid2
                {
                  OFFSET 3.10165 -0.590103 1.0647
                  CHANNELS 3 Zrotation Xrotation Yrotation
                  End Site
                  {
                    OFFSET 2.48547 -0.328903 0.83742
                  }
                }
              }
              JOINT lRing1
              {
                OFFSET 8.82822 0.546677 1.51678
                CHANNELS 3 Zrotation Xrotation Yrotation
                JOINT lRing2
                {
                  OFFSET 2.60934 -0.819778 -0.0198488
                  CHANNELS 3 Zrotation Xrotation Yrotation
                  End Site
                  {
                    OFFSET 2.33842 -0.294052 0.168128
                  }
                }
              }
              JOINT lPinky1
              {
                OFFSET 8.27202 -0.0477905 -0.4584
                CHANNELS 3 Zrotation Xrotation Yrotation
                JOINT lPinky2
                {
                  OFFSET 1.82734 -0.647385 -0.700984
                  CHANNELS 3 Zrotation Xrotation Yrotation
                  End Site
                  {
                    OFFSET 1.69225 -0.51767 -0.607171
                  }
                }
              }
            }
          }
        }
      }
    }
  }
  JOINT rButtock
  {
    OFFSET -8.77824 4.35084 1.2192
    CHANNELS 3 Zrotation Xrotation Yrotation
    JOINT rThigh
    {
      OFFSET 0 -1.70687 -2.19456
      CHANNELS 3 Zrotation Xrotation Yrotation
      JOINT rShin
      {
        OFFSET 0 -36.8199 0.73152
        CHANNELS 3 Zrotation Xrotation Yrotation
        JOINT rFoot
        {
          OFFSET 0.73152 -45.1104 -5.12064
          CHANNELS 3 Zrotation Xrotation Yrotation
          End Site
          {
            OFFSET -1.1221 -3.69964 12.103
          }
        }
      }
    }
  }
  JOINT lButtock
  {
    OFFSET 8.77824 4.35084 1.2192
    CHANNELS 3 Zrotation Xrotation Yrotation
    JOINT lThigh
    {
      OFFSET 0 -1.70687 -2.19456
      CHANNELS 3 Zrotation Xrotation Yrotation
      JOINT lShin
      {
        OFFSET 0 -36.8199 0.73152
        CHANNELS 3 Zrotation Xrotation Yrotation
        JOINT lFoot
        {
          OFFSET -0.73152 -45.1104 -5.12064
          CHANNELS 3 Zrotation Xrotation Yrotation
          End Site
          {
            OFFSET 1.1221 -3.69964 12.103
          }
        }
      }
    }
  }
}
MOTION
Frames:	8
Frame Time:	0.00833333
-0.004199 61.292595 -0.003994 -159.257 -66.5065 1240.86 1.23913 11.5906 13.7671 0.070301 -13.7663 3.8719 -0.09051 13.3095 9.9321 5.09088 -18.9265 20.1781 -0.0 0.0 0.0 -0.0 0.0 0.0 0.0 -0.0 0.0 50.8972 82.1446 12.4572 -26.4503 -45.3454 94.1731 -44.4851 -79.8946 -52.0516 -0.0 -0.0 -0.0 -0.0 -0.0 -0.0 -0.0 -0.0 -0.0 7.73091 5.47488 0.417314 -0.0 -0.0 -0.0 2.90554 0.965183 0.102902 -0.0 -0.0 -0.0 10.2786 0.731801 0.025912 -0.0 -0.0 -0.0 2.22167 -0.733487 -0.20892 0.0 -0.0 0.0 -67.3273 6.41732 -36.689 28.4305 -35.2212 -75.708 0.462266 18.9611 -2.76763 -0.0 0.0 0.0 -0.0 0.0 0.0 -0.0 0.0 0.0 -7.73091 5.47488 -0.417314 -0.0 0.0 0.0 -2.90554 0.965183 -0.102902 -0.0 0.0 0.0 -10.2786 0.731801 -0.025912 -0.0 0.0 0.0 -2.22167 -0.733487 0.20892 -0.0 0.0 -0.0 -13.4675 -37.3328 -25.7511 -23.7539 87.815 25.4395 -23.0748 -25.2774 -33.8814 0.0 0.0 0.0 81.3191 -42.2764 74.4742 3.92868 76.9196 -3.80092 -0.134716 3.57719 -6.1769
-0.007901 61.268795 -0.000989 -159.19 -66.5256 1240.8 1.23154 11.6103 13.7392 0.068848 -13.7864 3.86357 -0.091649 13.3274 9.93078 5.14389 -18.9457 20.1855 -0.0 0.0 0.0 -0.0 0.0 0.0 0.0 -0.0 0.0 50.8201 82.1637 12.5282 -26.4541 -45.3371 94.1558 -44.6799 -79.9212 -52.2494 -0.0 -0.0 -0.0 -0.0 -0.0 -0.0 -0.0 -0.0 -0.0 7.73091 5.47488 0.417314 -0.0 -0.0 -0.0 2.90554 0.965183 0.102902 -0.0 -0.0 -0.0 10.2786 0.731801 0.025912 -0.0 -0.0 -0.0 2.22167 -0.733487 -0.20892 0.0 -0.0 0.0 -67.3064 6.38569 -36.7021 28.4303 -35.2324 -75.7289 0.461244 18.9411 -2.76449 0.0 0.0 -0.0 0.0 0.0 -0.0 0.0 0.0 -0.0 -7.73091 5.47488 -0.417314 0.0 0.0 -0.0 -2.90554 0.965183 -0.102902 0.0 0.0 -0.0 -10.2786 0.731801 -0.025912 0.0 0.0 -0.0 -2.22167 -0.733487 0.20892 -0.0 0.0 -0.0 -13.4548 -37.3564 -25.7286 -24.0585 87.8417 25.7467 -23.112 -25.2493 -33.9401 0.0 0.0 0.0 81.3555 -42.2909 74.5198 3.93976 76.9497 -3.81153 -0.139877 3.55706 -6.19683
-0.014302 61.246395 0.014019 -159.232 -66.5613 1240.84 1.23841 11.6164 13.7082 0.061535 -13.7973 3.85398 -0.089537 13.3358 9.9277 5.17631 -18.948 20.1845 -0.0 0.0 0.0 -0.0 0.0 0.0 0.0 -0.0 0.0 50.6726 82.189 12.6727 -26.4578 -45.329 94.139 -44.7455 -79.93 -52.316 -0.0 -0.0 -0.0 -0.0 -0.0 -0.0 -0.0 -0.0 -0.0 7.73091 5.47488 0.417314 -0.0 -0.0 -0.0 2.90554 0.965183 0.102902 -0.0 -0.0 -0.0 10.2786 0.731801 0.025912 -0.0 -0.0 -0.0 2.22167 -0.733487 -0.20892 0.0 -0.0 0.0 -67.2802 6.35094 -36.7238 28.43 -35.2303 -75.7266 0.460997 18.9363 -2.76373 0.0 -0.0 -0.0 0.0 -0.0 -0.0 0.0 -0.0 -0.0 -7.73091 5.47488 -0.417314 0.0 -0.0 -0.0 -2.90554 0.965183 -0.102902 0.0 -0.0 -0.0 -10.2786 0.731801 -0.025912 0.0 -0.0 -0.0 -2.22167 -0.733487 0.20892 -0.0 0.0 -0.0 -13.4433 -37.3847 -25.7152 -24.3592 87.8675 26.05 -23.1474 -25.2243 -33.9962 0.0 0.0 0.0 81.4053 -42.3137 74.5763 3.95126 76.9808 -3.82261 -0.144568 3.54052 -6.21473
-0.016701 61.2339 0.026011 -159.224 -66.597 1240.85 1.26845 11.6009 13.6705 0.043339 -13.7943 3.84164 -0.081388 13.3302 9.92146 5.17982 -18.9225 20.1701 -0.0 0.0 0.0 -0.0 0.0 0.0 0.0 -0.0 0.0 50.4096 82.2256 12.9403 -26.4619 -45.32 94.1203 -44.6024 -79.9107 -52.1707 -0.0 -0.0 -0.0 -0.0 -0.0 -0.0 -0.0 -0.0 -0.0 7.73091 5.47488 0.417314 -0.0 -0.0 -0.0 2.90554 0.965183 0.102902 -0.0 -0.0 -0.0 10.2786 0.731801 0.025912 -0.0 -0.0 -0.0 2.22167 -0.733487 -0.20892 0.0 -0.0 0.0 -67.2397 6.31033 -36.7586 28.4296 -35.2083 -75.6905 0.462309 18.962 -2.76777 0.0 -0.0 -0.0 0.0 -0.0 -0.0 0.0 -0.0 -0.0 -7.73091 5.47488 -0.417314 0.0 -0.0 -0.0 -2.90554 0.965183 -0.102902 0.0 -0.0 -0.0 -10.2786 0.731801 -0.025912 0.0 -0.0 -0.0 -2.22167 -0.733487 0.20892 -0.0 0.0 -0.0 -13.4333 -37.4187 -25.7158 -24.6416 87.8914 26.3353 -23.1795 -25.212 -34.0431 0.0 0.0 0.0 81.4758 -42.3512 74.6494 3.96342 77.0137 -3.83441 -0.148318 3.53009 -6.22617
-0.014699 61.212498 0.040019 -159.235 -66.6288 1240.9 1.31124 11.5683 13.6273 0.017892 -13.781 3.8271 -0.069688 13.316 9.91236 5.16726 -18.8779 20.1459 -0.0 0.0 0.0 -0.0 0.0 0.0 0.0 0.0 0.0 50.0534 82.273 13.3067 -26.4667 -45.3096 94.0986 -44.3262 -79.8728 -51.8902 -0.0 -0.0 -0.0 -0.0 -0.0 -0.0 -0.0 -0.0 -0.0 7.73091 5.47488 0.417314 -0.0 -0.0 -0.0 2.90554 0.965183 0.102902 -0.0 -0.0 -0.0 10.2786 0.731801 0.025912 -0.0 -0.0 -0.0 2.22167 -0.733487 -0.20892 0.0 0.0 0.0 -67.1884 6.26361 -36.802 28.4291 -35.1727 -75.6312 0.464756 19.0098 -2.77529 0.0 -0.0 -0.0 0.0 -0.0 -0.0 0.0 -0.0 -0.0 -7.73091 5.47488 -0.417314 0.0 -0.0 -0.0 -2.90554 0.965183 -0.102902 0.0 -0.0 -0.0 -10.2786 0.731801 -0.025912 0.0 -0.0 -0.0 -2.22167 -0.733487 0.20892 -0.0 0.0 -0.0 -13.4266 -37.4586 -25.7246 -24.9217 87.9147 26.6183 -23.2097 -25.2081 -34.0841 0.0 0.0 0.0 81.5587 -42.3982 74.7363 3.97589 77.0474 -3.84653 -0.151061 3.52638 -6.23159
-0.0103 61.1919 0.041008 -159.075 -66.6527 1240.78 1.35492 11.5329 13.5861 -0.006212 -13.7654 3.81329 -0.05885 13.2994 9.90331 5.14773 -18.8323 20.1208 -0.0 0.0 0.0 -0.0 0.0 0.0 0.0 0.0 0.0 49.6836 82.32 13.6837 -26.4708 -45.3004 94.0795 -44.0394 -79.833 -51.5988 -0.0 -0.0 -0.0 -0.0 -0.0 -0.0 -0.0 -0.0 -0.0 7.73091 5.47488 0.417314 -0.0 -0.0 -0.0 2.90554 0.965183 0.102902 -0.0 -0.0 -0.0 10.2786 0.731801 0.025912 -0.0 -0.0 -0.0 2.22167 -0.733487 -0.20892 0.0 0.0 0.0 -67.144 6.21722 -36.8478 28.4284 -35.1328 -75.565 0.466895 19.0514 -2.78184 0.0 -0.0 -0.0 0.0 -0.0 -0.0 0.0 -0.0 -0.0 -7.73091 5.47488 -0.417314 0.0 -0.0 -0.0 -2.90554 0.965183 -0.102902 0.0 -0.0 -0.0 -10.2786 0.731801 -0.025912 0.0 -0.0 -0.0 -2.22167 -0.733487 0.20892 -0.0 0.0 -0.0 -13.4213 -37.502 -25.7349 -25.2187 87.9388 26.9182 -23.2399 -25.1936 -34.1315 0.0 0.0 0.0 81.6439 -42.4444 74.8271 3.98841 77.0809 -3.85872 -0.153889 3.52324 -6.24063
-0.006798 61.169 0.051022 -158.979 -66.7042 1240.73 1.38768 11.5094 13.5543 -0.020387 -13.7556 3.80311 -0.05328 13.2867 9.89724 5.13025 -18.8038 20.1036 -0.0 0.0 0.0 -0.0 0.0 0.0 -0.0 0.0 0.0 49.3837 82.3552 13.9791 -26.4732 -45.2952 94.0689 -43.8612 -79.8079 -51.4177 -0.0 -0.0 -0.0 -0.0 -0.0 -0.0 -0.0 -0.0 -0.0 7.73091 5.47488 0.417314 -0.0 -0.0 -0.0 2.90554 0.965183 0.102902 -0.0 -0.0 -0.0 10.2786 0.731801 0.025912 -0.0 -0.0 -0.0 2.22167 -0.733487 -0.20892 -0.0 0.0 0.0 -67.1244 6.17762 -36.8898 28.4277 -35.0984 -75.508 0.46726 19.0586 -2.78297 0.0 -0.0 -0.0 0.0 -0.0 -0.0 0.0 -0.0 -0.0 -7.73091 5.47488 -0.417314 0.0 -0.0 -0.0 -2.90554 0.965183 -0.102902 0.0 -0.0 -0.0 -10.2786 0.731801 -0.025912 0.0 -0.0 -0.0 -2.22167 -0.733487 0.20892 -0.0 0.0 -0.0 -13.4153 -37.546 -25.74 -25.5532 87.9648 27.2552 -23.2721 -25.1497 -34.1974 0.0 0.0 0.0 81.7213 -42.4793 74.9117 4.00072 77.1131 -3.87073 -0.157901 3.51456 -6.26295
-0.003299 61.151 0.056005 -158.876 -66.7331 1240.6602 1.40715 11.5005 13.5321 -0.016954 -13.7529 3.79749 -0.056803 13.2786 9.89542 5.11095 -18.8006 20.097 -0.0 0.0 0.0 -0.0 0.0 0.0 -0.0 0.0 -0.0 49.1702 82.375 14.1694 -26.4726 -45.2963 94.0718 -43.831 -79.8037 -51.3871 -0.0 -0.0 0.0 -0.0 -0.0 0.0 -0.0 -0.0 0.0 7.73091 5.47488 0.417314 -0.0 -0.0 0.0 2.90554 0.965183 0.102902 -0.0 -0.0 0.0 10.2786 0.731801 0.025912 -0.0 -0.0 0.0 2.22167 -0.733487 -0.20892 -0.0 0.0 -0.0 -67.1428 6.14471 -36.9289 28.4272 -35.0702 -75.4613 0.464603 19.0072 -2.77487 0.0 -0.0 -0.0 0.0 -0.0 -0.0 0.0 -0.0 -0.0 -7.73091 5.47488 -0.417314 0.0 -0.0 -0.0 -2.90554 0.965183 -0.102902 0.0 -0.0 -0.0 -10.2786 0.731801 -0.025912 0.0 -0.0 -0.0 -2.22167 -0.733487 0.20892 -0.0 0.0 -0.0 -13.4037 -37.5929 -25.7388 -25.9209 87.9924 27.6251 -23.3123 -25.0375 -34.3123 0.0 0.0 0.0 81.7931 -42.5007 74.9894 4.01285 77.1439 -3.88266 -0.163671 3.49875 -6.30715
